<svg xmlns="http://www.w3.org/2000/svg" xmlns:xlink="http://www.w3.org/1999/xlink" width="128" height="200">
  <clipPath id="topblack">
    <rect width="128" height="26"/>
  </clipPath>

  <line x1="64" y1="0" x2="64" y2="100" stroke="black" stroke-width="2"/>

  <rect x="57" y="17" width="14" height="6" fill="black"/>
  <path id="toppart" d="M57,21 c0,0 -7,5 -7,15 v34 h15 v-49" fill="rgb(191,191,191)"/>
  <use xlink:href="#toppart" transform="scale(-1,1) translate(-128,0)"/>
  <rect x="47" y="32" width="34" height="3" fill="black"/>
  <rect x="47" y="38" width="34" height="3" fill="black"/>
  <rect x="47" y="44" width="34" height="3" fill="black"/>
  <rect x="47" y="50" width="34" height="3" fill="black"/>
  
  <circle cx="64" cy="132" r="42"/>
  <path d="M50,55 c0,0 -7,0 -7,5 c 0,35 -20,45 -21,72 L75,132 L75,55" id="apple"/>
  <use xlink:href="#apple" transform="scale(-1,1) translate(-128,0)"/>

  <path d="M66,59 c 0,0 -30,40 0,41 c 14,0 14,-16 0,-16 c -20,0 -20,41 0,41 c 16,0 16,-16 0,-16 c -20,0 -20,35 0,35" stroke="white" stroke-width="5" stroke-linecap="round"/>

  <g id="lines">
    <line x1="21" y1="87" x2="26" y2="91" stroke="black" stroke-width="2"/>
    <line x1="7" y1="114" x2="15" y2="116" stroke="black" stroke-width="2"/>
    <line x1="11" y1="156" x2="17" y2="153" stroke="black" stroke-width="2"/>
    <line x1="34" y1="182" x2="37" y2="176" stroke="black" stroke-width="2"/>
  </g>
  <use xlink:href="#lines" transform="scale(-1,1) translate(-128,0)"/>
</svg>